<svg xmlns="http://www.w3.org/2000/svg" width="24" height="24" viewBox="0 0 24 24" fill="none">
  <path fill-rule="evenodd" clip-rule="evenodd" d="M21.6 2.4H2.4V21.6H21.6V2.4ZM2.4 0C1.07452 0 0 1.07452 0 2.4V21.6C0 22.9255 1.07452 24 2.4 24H21.6C22.9255 24 24 22.9255 24 21.6V2.4C24 1.07452 22.9255 0 21.6 0H2.4Z" fill="#A2A2A2"/>
  <path fill-rule="evenodd" clip-rule="evenodd" d="M7.2 9C8.19411 9 9 8.19411 9 7.2C9 6.20589 8.19411 5.4 7.2 5.4C6.20589 5.4 5.4 6.20589 5.4 7.2C5.4 8.19411 6.20589 9 7.2 9ZM7.2 10.8C9.18823 10.8 10.8 9.18823 10.8 7.2C10.8 5.21178 9.18823 3.6 7.2 3.6C5.21178 3.6 3.6 5.21178 3.6 7.2C3.6 9.18823 5.21178 10.8 7.2 10.8Z" fill="#A2A2A2"/>
  <path fill-rule="evenodd" clip-rule="evenodd" d="M15.0515 10.5515C15.5201 10.0828 16.2799 10.0828 16.7485 10.5515L20.6485 14.4515C21.1172 14.9201 21.1172 15.6799 20.6485 16.1485C20.1799 16.6172 19.4201 16.6172 18.9515 16.1485L15.9 13.0971L11.9485 17.0485C11.4799 17.5172 10.7201 17.5172 10.2515 17.0485L8.7 15.4971L5.34853 18.8485C4.8799 19.3172 4.1201 19.3172 3.65147 18.8485C3.18284 18.3799 3.18284 17.6201 3.65147 17.1515L7.85147 12.9515C8.3201 12.4828 9.0799 12.4828 9.54853 12.9515L11.1 14.5029L15.0515 10.5515Z" fill="#A2A2A2"/>
</svg>