<svg width="26" height="26" viewBox="0 0 26 26" fill="none" xmlns="http://www.w3.org/2000/svg">
<g id="iconamoon:zoom-in-bold">
<path id="Vector" d="M22.7295 22.2437L18.1518 17.6659M18.1518 17.6659C18.9348 16.8829 19.556 15.9533 19.9797 14.9302C20.4035 13.9071 20.6216 12.8105 20.6216 11.7032C20.6216 10.5958 20.4035 9.49922 19.9798 8.47612C19.556 7.45303 18.9348 6.52342 18.1518 5.74037C17.3687 4.95733 16.4391 4.33619 15.416 3.91241C14.3929 3.48862 13.2964 3.27051 12.189 3.27051C11.0816 3.27051 9.98506 3.48862 8.96196 3.91241C7.93887 4.33619 7.00926 4.95733 6.22621 5.74037C4.64478 7.3218 3.75635 9.46668 3.75635 11.7032C3.75635 13.9396 4.64478 16.0845 6.22621 17.6659C7.80764 19.2474 9.95252 20.1358 12.189 20.1358C14.4255 20.1358 16.5704 19.2474 18.1518 17.6659ZM12.189 8.541V14.8653M9.02683 11.7032H15.3512" stroke="#333333" stroke-width="2.5" stroke-linecap="round" stroke-linejoin="round"/>
</g>
</svg>
