<svg width="130" height="24" viewBox="0 0 130 24" fill="none" xmlns="http://www.w3.org/2000/svg">
<g id="logo_nanohana_orange 1" clip-path="url(#clip0_1033_1596)">
<g id="Group">
<g id="XMLID_37_">
<g id="XMLID_38_">
<g id="Group_2">
<path id="XMLID_252_" d="M128.193 10.3449C127.614 9.84834 126.786 9.76558 125.793 9.76558H111.476V8.27592H125.379C126.29 8.27592 127.035 8.11041 127.448 7.69661C127.945 7.28282 128.11 6.53799 128.11 5.54489V3.80696C128.11 2.73109 127.862 1.98627 127.366 1.57247C126.869 1.15868 126.207 0.993164 125.297 0.993164H111.228C110.317 0.993164 109.573 1.15868 108.993 1.57247C108.497 1.98627 108.248 2.73109 108.248 3.88972V10.9242C108.248 16.5518 107.421 18.538 106.593 20.4414C106.345 20.938 106.179 21.5173 106.097 22.0139C106.097 23.5035 107.917 23.5863 108.083 23.5863C108.828 23.5863 109.159 23.2552 109.821 21.6001C111.145 18.3725 111.31 14.1518 111.393 12.3311H124.883C125.876 12.3311 125.876 12.4966 125.959 13.6552C125.959 14.8139 125.793 19.1173 125.297 20.0276C124.966 20.5242 124.966 20.607 123.89 20.607C123.724 20.607 123.476 20.607 123.228 20.607C123.476 20.2759 123.642 19.8621 123.642 18.4552V16.8001C123.642 15.5587 123.476 14.8139 123.062 14.3173C122.566 13.8207 121.821 13.738 120.662 13.738H115.779C114.538 13.738 113.793 13.9035 113.297 14.3173C112.8 14.8139 112.717 15.5587 112.717 16.8001V18.4552C112.717 19.6966 112.883 20.4414 113.297 20.938C113.793 21.4345 114.538 21.5173 115.779 21.5173H120.993C120.91 21.6828 120.91 21.8483 120.91 22.0966C120.91 22.5932 121.076 23.2552 121.738 23.5863C122.069 23.7518 122.235 23.7518 123.559 23.7518C123.724 23.7518 123.89 23.7518 123.973 23.7518C126.704 23.7518 128.028 23.5863 128.607 21.0207C129.021 19.2828 129.104 15.1449 129.104 13.3242C129.021 11.7518 128.773 10.8414 128.193 10.3449ZM111.476 5.62765V4.38627C111.476 4.05523 111.642 3.7242 112.138 3.7242H124.386C124.8 3.7242 124.883 3.88972 124.966 4.30351V5.13109C124.966 5.54489 124.8 5.7104 124.386 5.7104H111.476V5.62765ZM120.579 16.9656V18.3725C120.579 18.7035 120.497 19.0345 119.917 19.0345H116.276C115.862 19.0345 115.614 18.7863 115.614 18.3725V16.9656C115.614 16.469 115.779 16.3035 116.276 16.3035H119.917C120.414 16.2207 120.579 16.5518 120.579 16.9656Z" fill="#222222"/>
<path id="XMLID_249_" d="M37.0758 17.0479C36.0827 19.7789 34.6758 21.9306 32.2758 21.9306C29.2965 21.9306 26.4827 17.9582 26.4827 13.0754C26.4827 5.9582 31.7792 1.1582 38.8965 1.1582C46.5103 1.1582 50.0689 6.62027 50.0689 11.7513C50.0689 19.7789 42.7861 23.0065 41.3792 23.0065C40.2206 23.0065 39.6413 22.0134 39.6413 21.103C39.6413 20.441 39.9723 20.0272 40.5516 19.7789C42.4551 18.9513 46.4275 17.0479 46.4275 11.7513C46.4275 9.68234 45.7654 5.13062 39.9723 4.38579C39.4758 8.19269 38.7309 12.5789 37.0758 17.0479ZM29.793 13.1582C29.793 15.8065 30.9516 18.2065 32.1103 18.2065C32.9378 18.2065 33.5171 16.7168 33.9309 15.5582C35.2551 11.9996 35.9171 8.27544 36.4137 4.55131C31.7792 5.79269 29.793 9.59958 29.793 13.1582Z" fill="#222222"/>
<path id="XMLID_246_" d="M67.4483 6.04138C67.4483 6.53793 67.6138 6.86897 67.8621 7.03448C68.1104 7.2 68.6069 7.28276 69.1035 7.28276C69.6 7.28276 70.0138 7.2 70.2621 6.95172C70.5104 6.70345 70.5931 6.37241 70.5931 6.04138V5.04828H74.9793C75.4759 5.04828 75.8897 4.96552 76.138 4.71724C76.3862 4.46897 76.5517 4.05517 76.5517 3.55862C76.5517 2.15172 75.3104 2.15172 74.9793 2.15172H70.5931V1.24138C70.5931 0.248276 69.7655 0 68.938 0C68.2759 0 67.4483 0.248276 67.4483 1.24138V2.15172H61.9035V1.24138C61.9035 0.248276 61.0759 0 60.2483 0C59.5862 0 58.7586 0.248276 58.6759 1.24138V2.15172H54.2069C53.7931 2.15172 53.3793 2.23448 53.0483 2.48276C52.8 2.73103 52.5517 3.06207 52.5517 3.64138C52.5517 5.04828 53.6276 5.04828 54.1242 5.04828H58.5931V5.95862C58.5931 6.28966 58.6759 6.37241 58.7586 6.62069C58.3448 6.78621 58.0138 7.03448 57.6828 7.61379C56.4414 9.84828 55.6138 11.4207 53.131 13.5724C52.7173 13.9034 52.3035 14.3172 52.3035 15.0621C52.3035 15.8897 53.0483 16.8828 53.9586 16.8828C54.6207 16.8828 55.2 16.3862 56.0276 15.4759V22.3448C56.0276 22.9241 56.1104 23.2552 56.4414 23.5862C56.6897 23.8345 57.1862 24 57.8483 24C58.5931 24 59.0069 23.7517 59.1724 23.3379C59.3379 23.0069 59.3379 22.5931 59.3379 22.3448V11.3379C59.8345 10.5103 60.8276 8.85517 60.8276 8.11034C60.8276 7.61379 60.7448 7.44828 60.5793 7.28276C60.9931 7.2 61.7379 7.03448 61.7379 6.04138V5.04828H67.2828V6.04138H67.4483ZM74.8138 16.0552C74.069 16.0552 73.5724 16.3862 73.4069 17.2966C73.4069 17.4621 73.2414 18.5379 73.2414 18.7034C72.9931 20.6069 72.9931 20.5241 70.7586 20.6069C68.3586 20.6069 68.2759 20.6069 68.1104 20.5241C67.7793 20.4414 67.6966 20.1931 67.6966 19.6966V15.6414C69.4345 14.8966 71.4207 13.8207 72.6621 12.9931C75.3931 11.2552 75.5586 10.7586 75.5586 10.0966C75.5586 9.26897 74.8138 8.44138 73.9035 8.44138C73.3242 8.44138 73.2414 8.52414 72 9.51724C70.5931 10.5931 69.7655 11.0897 67.6966 12.1655V8.6069C67.6966 8.11034 67.6138 7.69655 67.3655 7.44828C67.1173 7.2 66.6207 7.03448 65.9586 7.03448C64.3862 7.03448 64.3862 8.27586 64.3862 8.68966V20.8552C64.3862 21.4345 64.3862 23.0069 65.7104 23.5862C66.2897 23.8345 66.3724 23.9172 71.3379 23.9172H71.5035C73.8207 23.9172 74.9793 23.9172 75.7242 22.6759C76.3035 21.6828 76.6345 19.1172 76.6345 17.9586C76.6345 17.3793 76.469 16.9655 76.138 16.7172C75.7242 16.1379 75.3104 16.0552 74.8138 16.0552Z" fill="#222222"/>
<path id="XMLID_236_" d="M103.117 6.78621C103.117 6.12414 102.538 5.29655 101.71 5.29655C101.297 5.29655 101.048 5.46207 100.8 5.62759C100.634 5.7931 99.5586 6.62069 99.3103 6.78621C97.9034 7.69655 97.7379 7.86207 97.7379 8.35862C97.7379 8.93793 98.2345 9.84828 99.0621 9.84828C99.7241 9.84828 100.634 9.18621 101.462 8.68966C102.952 7.69655 103.117 7.36552 103.117 6.78621ZM81.4345 4.13793H85.4069V4.46897C85.4069 4.8 85.4896 5.04828 85.7379 5.29655C85.9862 5.54483 86.4 5.62759 87.1448 5.62759C87.5586 5.62759 88.6345 5.54483 88.6345 4.46897V4.13793H95.0896V4.46897C95.0896 4.71724 95.0896 5.04828 95.3379 5.29655C95.5862 5.54483 96 5.71034 96.7448 5.71034C97.1586 5.71034 98.2345 5.62759 98.2345 4.55172V4.13793H102.207C102.786 4.13793 103.779 4.05517 103.779 2.81379C103.779 1.48966 102.538 1.48966 102.207 1.48966H98.2345C98.2345 1.07586 98.2345 0.744828 97.9862 0.496552C97.7379 0.165517 97.3241 0 96.4965 0C95.7517 0 95.4207 0.248276 95.2552 0.57931C95.0896 0.910345 95.0896 1.24138 95.0896 1.57241H88.6345C88.6345 1.24138 88.6345 0.827586 88.3862 0.57931C88.1379 0.248276 87.7241 0 86.8965 0C86.1517 0 85.8207 0.248276 85.6552 0.57931C85.4896 0.910345 85.4896 1.24138 85.4896 1.57241H81.5172C80.8552 1.57241 79.9448 1.73793 79.9448 2.89655C79.8621 4.13793 81.1034 4.13793 81.4345 4.13793ZM98.1517 12.9103C98.731 13.2414 99.9724 13.9034 100.303 14.1517C101.545 14.8966 101.71 15.0621 102.207 15.0621C103.2 15.0621 103.531 14.1517 103.531 13.8207C103.531 13.7379 103.531 13.6552 103.531 13.6552C103.531 12.9103 102.869 12.4966 102.372 12.1655C101.462 11.669 99.4759 10.5103 98.6483 10.5103C97.7379 10.5103 97.2414 11.4207 97.2414 12C97.3241 12.4138 97.8207 12.6621 98.1517 12.9103ZM103.2 18.0414C103.531 17.8759 103.697 17.5448 103.697 16.9655C103.697 16.469 103.531 16.1379 103.283 15.8897C103.034 15.7241 102.703 15.6414 102.29 15.6414H93.269V14.6483H94.5103C95.669 14.6483 96.331 14.4 96.7448 13.9862C97.1586 13.4897 97.1586 12.8276 97.1586 11.8345V8.85517C97.1586 7.86207 97.0759 7.2 96.7448 6.70345C96.331 6.2069 95.669 5.95862 94.5103 5.95862H93.0207C93.1034 5.71034 93.1862 5.54483 93.1862 5.37931C93.1862 4.88276 92.5241 4.46897 91.531 4.46897C90.5379 4.46897 90.3724 4.8 89.7931 5.95862H89.0483C87.8896 5.95862 87.2276 6.2069 86.8138 6.62069C86.4 7.11724 86.4 7.86207 86.4 8.85517V11.8345C86.4 12.8276 86.4828 13.5724 86.8138 13.9862C87.2276 14.4828 87.8896 14.6483 89.0483 14.6483H90.1241V15.6414H81.269C80.9379 15.6414 79.8621 15.6414 79.8621 16.8828C79.8621 17.3793 79.9448 17.7103 80.1931 17.9586C80.4414 18.2069 80.7724 18.2897 81.269 18.2897H87.5586C86.731 18.7034 84.9931 19.6138 83.2552 20.0276C80.6896 20.6897 80.1103 20.8552 80.1103 21.931C80.1103 22.4276 80.4414 23.5034 81.5172 23.5862C82.6759 23.5862 87.1448 21.931 90.2069 19.6966V22.3448C90.2069 22.8414 90.2069 23.9172 91.6965 23.9172C92.1931 23.9172 92.6069 23.8345 92.9379 23.5862C93.1862 23.3379 93.3517 22.9241 93.3517 22.3448V19.2828C96.4138 21.8483 101.048 23.3379 102.041 23.3379C103.283 23.3379 103.531 22.2621 103.531 21.7655C103.531 20.7724 102.703 20.5241 102.041 20.3586C99.8897 19.7793 97.9862 19.2828 95.9172 18.1241H102.372C102.621 18.2069 102.952 18.2069 103.2 18.0414ZM89.4621 8.44138C89.4621 8.11034 89.6276 7.94483 89.9586 7.86207H93.6C94.0138 7.86207 94.0965 8.02759 94.1793 8.44138V9.02069H89.4621V8.44138ZM89.9586 12.4138C89.6276 12.4138 89.4621 12.2483 89.4621 11.8345V11.1724H94.1793V11.8345C94.1793 12.1655 94.0138 12.331 93.6 12.4138H89.9586ZM84.4965 9.68276C85.1586 9.68276 85.9034 9.10345 85.9034 8.02759C85.9034 7.44828 85.4896 7.2 84.5793 6.53793C83.8345 6.04138 82.5931 5.21379 81.931 5.21379C81.1862 5.21379 80.6069 5.95862 80.6069 6.70345C80.6069 7.11724 80.8552 7.44828 81.0207 7.61379C81.269 7.77931 82.3448 8.44138 82.5103 8.6069C83.669 9.43448 84 9.68276 84.4965 9.68276ZM80.0276 13.1586C80.0276 13.5724 80.2759 14.731 81.3517 14.731C82.1793 14.731 84.1655 13.6552 84.9103 13.1586C85.5724 12.8276 86.2345 12.4138 86.2345 11.669C86.2345 11.5862 86.2345 11.5862 86.2345 11.5034C86.1517 11.0069 85.8207 10.2621 84.9931 10.2621C84.7448 10.2621 84.4965 10.3448 84.1655 10.5103C83.7517 10.6759 82.0138 11.5034 81.5172 11.669C80.5241 12.1655 79.9448 12.4138 80.0276 13.1586Z" fill="#222222"/>
<g id="XMLID_228_">
<path id="XMLID_232_" d="M4.13793 17.5451C3.47586 18.7865 3.06207 19.5313 1.98621 19.5313C1.15862 19.5313 0 18.952 0 17.8761C0 17.2968 0.0827586 17.1313 0.993104 15.5589C1.4069 14.814 3.06207 11.3382 4.38621 7.86232C1.57241 7.86232 0.165517 7.86232 0.165517 6.04163C0.165517 4.3037 1.57241 4.3037 2.15172 4.3037C2.81379 4.3037 5.04828 4.3037 5.54483 4.3037C5.71034 3.80715 6.28966 1.32439 6.53793 0.993353C6.86897 0.414042 7.36552 0.0830078 8.02759 0.0830078C8.85517 0.0830078 10.0138 0.496801 10.0138 1.57266C10.0138 1.98646 9.93103 2.23473 9.43448 4.05542C9.84828 3.97266 11.4207 3.80715 11.7517 3.80715C12.6621 3.80715 13.1586 4.55197 13.1586 5.37956C13.1586 7.11749 12.331 7.20025 8.27586 7.61404C7.03448 10.9244 5.7931 14.3175 4.13793 17.5451ZM14.1517 10.4278C14.1517 8.85542 15.3103 8.77266 15.7241 8.77266C17.3793 8.77266 17.4621 10.014 17.5448 10.5106C17.7103 12.5796 17.7103 14.4002 17.7931 15.6416C19.3655 16.2209 21.269 17.214 22.0966 17.7934C22.7586 18.2899 23.0897 18.6209 23.0897 19.283C23.0897 20.1106 22.5103 21.2692 21.4345 21.2692C21.1034 21.2692 20.9379 21.1865 19.7793 20.4416C19.1172 20.0278 18.1241 19.5313 17.9586 19.4485C17.9586 22.7589 15.8069 24.0002 12.4966 24.0002C9.02069 24.0002 6.37241 22.2623 6.37241 19.283C6.37241 16.8002 8.27586 14.483 12.2483 14.483C13.1586 14.483 14.1517 14.6485 14.4828 14.7313C14.2345 14.0692 14.1517 11.0899 14.1517 10.4278ZM11.8345 17.5451C10.0966 17.5451 9.26897 18.2071 9.26897 19.1175C9.26897 20.5244 11.0069 20.8554 11.9172 20.8554C12.2483 20.8554 13.9862 20.8554 14.3172 19.6968C14.4 19.4485 14.4 19.283 14.4 17.9589C13.9034 17.7934 12.8276 17.5451 11.8345 17.5451Z" fill="#222222"/>
<path id="XMLID_229_" d="M25.4069 5.95843C25.4069 7.69636 22.8413 7.28257 21.3517 6.95154C21.7655 8.44119 22.1793 11.0067 20.3586 11.0067C18.6206 11.0067 19.0344 8.44119 19.3655 6.95154C17.8758 7.36533 15.3103 7.77912 15.3103 5.95843C15.3103 4.13774 17.8758 4.55154 19.3655 4.96533C18.9517 3.47567 18.5379 0.910156 20.3586 0.910156C22.1793 0.910156 21.7655 3.47567 21.3517 4.96533C22.8413 4.63429 25.4069 4.2205 25.4069 5.95843ZM20.7724 6.37223C21.3517 6.28947 21.8482 6.20671 22.1793 5.95843C21.8482 5.71016 21.3517 5.6274 20.7724 5.54464C20.6896 4.96533 20.5241 4.46878 20.3586 4.13774C20.1931 4.46878 20.0275 4.96533 19.9448 5.54464C19.3655 5.6274 18.8689 5.71016 18.5379 5.95843C18.8689 6.12395 19.3655 6.28947 19.9448 6.37223C20.0275 6.95154 20.1103 7.44809 20.3586 7.77912C20.5241 7.44809 20.6896 6.95154 20.7724 6.37223Z" fill="#222222"/>
</g>
</g>
</g>
</g>
</g>
</g>
<defs>
<clipPath id="clip0_1033_1596">
<rect width="129.103" height="24" fill="white"/>
</clipPath>
</defs>
</svg>
