<svg xmlns="http://www.w3.org/2000/svg" width="87" height="87" viewBox="0 0 87 87" fill="none">
  <path d="M87 43.4999C87 55.5121 82.1311 66.3871 74.2591 74.2591C66.3872 82.131 55.5122 86.9999 43.5 86.9999C31.4878 86.9999 20.6128 82.131 12.7409 74.2591C4.86891 66.3871 1.90735e-06 55.5121 1.90735e-06 43.4999C1.90735e-06 31.4877 4.86891 20.6127 12.7409 12.7408C20.6128 4.86884 31.4878 -6.10352e-05 43.5 -6.10352e-05C55.5122 -6.10352e-05 66.3872 4.86884 74.2591 12.7408C82.1311 20.6127 87 31.4877 87 43.4999Z" fill="#E5E5E5"/>
  <path d="M86.5 43.4999C86.5 55.3742 81.6876 66.1235 73.9056 73.9055C66.1236 81.6875 55.3743 86.4999 43.5 86.4999C31.6257 86.4999 20.8764 81.6875 13.0944 73.9055C5.31239 66.1235 0.500002 55.3742 0.500002 43.4999C0.500002 31.6257 5.31239 20.8764 13.0944 13.0943C20.8764 5.31233 31.6257 0.499939 43.5 0.499939C55.3743 0.499939 66.1236 5.31233 73.9056 13.0943C81.6876 20.8764 86.5 31.6257 86.5 43.4999Z" stroke="black" stroke-opacity="0.3"/>
</svg>