<svg xmlns="http://www.w3.org/2000/svg" width="130" height="24" viewBox="0 0 130 24" fill="none">
  <g clip-path="url(#clip0_1008_411)">
    <path d="M128.193 10.3448C127.614 9.84828 126.786 9.76552 125.793 9.76552H111.476V8.27586H125.379C126.29 8.27586 127.034 8.11034 127.448 7.69655C127.945 7.28276 128.11 6.53793 128.11 5.54483V3.8069C128.11 2.73103 127.862 1.98621 127.366 1.57241C126.869 1.15862 126.207 0.993103 125.297 0.993103H111.228C110.317 0.993103 109.572 1.15862 108.993 1.57241C108.497 1.98621 108.248 2.73103 108.248 3.88965V10.9241C108.248 16.5517 107.421 18.5379 106.593 20.4414C106.345 20.9379 106.179 21.5172 106.097 22.0138C106.097 23.5034 107.917 23.5862 108.083 23.5862C108.828 23.5862 109.159 23.2552 109.821 21.6C111.145 18.3724 111.31 14.1517 111.393 12.331H124.883C125.876 12.331 125.876 12.4966 125.959 13.6552C125.959 14.8138 125.793 19.1172 125.297 20.0276C124.966 20.5241 124.966 20.6069 123.89 20.6069C123.724 20.6069 123.476 20.6069 123.228 20.6069C123.476 20.2759 123.641 19.8621 123.641 18.4552V16.8C123.641 15.5586 123.476 14.8138 123.062 14.3172C122.566 13.8207 121.821 13.7379 120.662 13.7379H115.779C114.538 13.7379 113.793 13.9034 113.297 14.3172C112.8 14.8138 112.717 15.5586 112.717 16.8V18.4552C112.717 19.6965 112.883 20.4414 113.297 20.9379C113.793 21.4345 114.538 21.5172 115.779 21.5172H120.993C120.91 21.6828 120.91 21.8483 120.91 22.0965C120.91 22.5931 121.076 23.2552 121.738 23.5862C122.069 23.7517 122.234 23.7517 123.559 23.7517C123.724 23.7517 123.89 23.7517 123.972 23.7517C126.703 23.7517 128.028 23.5862 128.607 21.0207C129.021 19.2828 129.103 15.1448 129.103 13.3241C129.021 11.7517 128.772 10.8414 128.193 10.3448ZM111.476 5.62759V4.38621C111.476 4.05517 111.641 3.72414 112.138 3.72414H124.386C124.8 3.72414 124.883 3.88965 124.966 4.30345V5.13103C124.966 5.54483 124.8 5.71034 124.386 5.71034H111.476V5.62759ZM120.579 16.9655V18.3724C120.579 18.7034 120.497 19.0345 119.917 19.0345H116.276C115.862 19.0345 115.614 18.7862 115.614 18.3724V16.9655C115.614 16.469 115.779 16.3034 116.276 16.3034H119.917C120.414 16.2207 120.579 16.5517 120.579 16.9655Z" fill="#222222"/>
    <path d="M37.0759 17.0483C36.0828 19.7793 34.6759 21.931 32.2759 21.931C29.2966 21.931 26.4828 17.9586 26.4828 13.0759C26.4828 5.95862 31.7793 1.15862 38.8966 1.15862C46.5103 1.15862 50.069 6.62069 50.069 11.7517C50.069 19.7793 42.7862 23.0069 41.3793 23.0069C40.2207 23.0069 39.6414 22.0138 39.6414 21.1034C39.6414 20.4414 39.9724 20.0276 40.5517 19.7793C42.4552 18.9517 46.4276 17.0483 46.4276 11.7517C46.4276 9.68276 45.7655 5.13103 39.9724 4.38621C39.4759 8.1931 38.731 12.5793 37.0759 17.0483ZM29.7931 13.1586C29.7931 15.8069 30.9517 18.2069 32.1103 18.2069C32.9379 18.2069 33.5172 16.7172 33.931 15.5586C35.2552 12 35.9172 8.27586 36.4138 4.55172C31.7793 5.7931 29.7931 9.6 29.7931 13.1586Z" fill="#222222"/>
    <path d="M67.4483 6.04138C67.4483 6.53793 67.6138 6.86897 67.8621 7.03448C68.1103 7.2 68.6069 7.28276 69.1035 7.28276C69.6 7.28276 70.0138 7.2 70.2621 6.95172C70.5104 6.70345 70.5931 6.37241 70.5931 6.04138V5.04828H74.9793C75.4759 5.04828 75.8897 4.96552 76.1379 4.71724C76.3862 4.46897 76.5517 4.05517 76.5517 3.55862C76.5517 2.15172 75.3103 2.15172 74.9793 2.15172H70.5931V1.24138C70.5931 0.248276 69.7655 0 68.9379 0C68.2759 0 67.4483 0.248276 67.4483 1.24138V2.15172H61.9035V1.24138C61.9035 0.248276 61.0759 0 60.2483 0C59.5862 0 58.7586 0.248276 58.6759 1.24138V2.15172H54.2069C53.7931 2.15172 53.3793 2.23448 53.0483 2.48276C52.8 2.73103 52.5517 3.06207 52.5517 3.64138C52.5517 5.04828 53.6276 5.04828 54.1241 5.04828H58.5931V5.95862C58.5931 6.28966 58.6759 6.37241 58.7586 6.62069C58.3448 6.78621 58.0138 7.03448 57.6828 7.61379C56.4414 9.84828 55.6138 11.4207 53.131 13.5724C52.7172 13.9034 52.3035 14.3172 52.3035 15.0621C52.3035 15.8897 53.0483 16.8828 53.9586 16.8828C54.6207 16.8828 55.2 16.3862 56.0276 15.4759V22.3448C56.0276 22.9241 56.1103 23.2552 56.4414 23.5862C56.6897 23.8345 57.1862 24 57.8483 24C58.5931 24 59.0069 23.7517 59.1724 23.3379C59.3379 23.0069 59.3379 22.5931 59.3379 22.3448V11.3379C59.8345 10.5103 60.8276 8.85517 60.8276 8.11034C60.8276 7.61379 60.7448 7.44828 60.5793 7.28276C60.9931 7.2 61.7379 7.03448 61.7379 6.04138V5.04828H67.2828V6.04138H67.4483ZM74.8138 16.0552C74.069 16.0552 73.5724 16.3862 73.4069 17.2966C73.4069 17.4621 73.2414 18.5379 73.2414 18.7034C72.9931 20.6069 72.9931 20.5241 70.7586 20.6069C68.3586 20.6069 68.2759 20.6069 68.1104 20.5241C67.7793 20.4414 67.6966 20.1931 67.6966 19.6966V15.6414C69.4345 14.8966 71.4207 13.8207 72.6621 12.9931C75.3931 11.2552 75.5586 10.7586 75.5586 10.0966C75.5586 9.26897 74.8138 8.44138 73.9035 8.44138C73.3241 8.44138 73.2414 8.52414 72 9.51724C70.5931 10.5931 69.7655 11.0897 67.6966 12.1655V8.6069C67.6966 8.11034 67.6138 7.69655 67.3655 7.44828C67.1172 7.2 66.6207 7.03448 65.9586 7.03448C64.3862 7.03448 64.3862 8.27586 64.3862 8.68966V20.8552C64.3862 21.4345 64.3862 23.0069 65.7104 23.5862C66.2897 23.8345 66.3724 23.9172 71.3379 23.9172H71.5035C73.8207 23.9172 74.9793 23.9172 75.7241 22.6759C76.3035 21.6828 76.6345 19.1172 76.6345 17.9586C76.6345 17.3793 76.469 16.9655 76.1379 16.7172C75.7241 16.1379 75.3104 16.0552 74.8138 16.0552Z" fill="#222222"/>
    <path d="M103.117 6.78621C103.117 6.12414 102.538 5.29655 101.71 5.29655C101.297 5.29655 101.048 5.46207 100.8 5.62759C100.634 5.7931 99.5586 6.62069 99.3104 6.78621C97.9035 7.69655 97.7379 7.86207 97.7379 8.35862C97.7379 8.93793 98.2345 9.84828 99.0621 9.84828C99.7241 9.84828 100.634 9.18621 101.462 8.68966C102.952 7.69655 103.117 7.36552 103.117 6.78621ZM81.4345 4.13793H85.4069V4.46897C85.4069 4.8 85.4897 5.04828 85.7379 5.29655C85.9862 5.54483 86.4 5.62759 87.1448 5.62759C87.5586 5.62759 88.6345 5.54483 88.6345 4.46897V4.13793H95.0897V4.46897C95.0897 4.71724 95.0897 5.04828 95.3379 5.29655C95.5862 5.54483 96 5.71034 96.7448 5.71034C97.1586 5.71034 98.2345 5.62759 98.2345 4.55172V4.13793H102.207C102.786 4.13793 103.779 4.05517 103.779 2.81379C103.779 1.48966 102.538 1.48966 102.207 1.48966H98.2345C98.2345 1.07586 98.2345 0.744828 97.9862 0.496552C97.7379 0.165517 97.3241 0 96.4966 0C95.7517 0 95.4207 0.248276 95.2552 0.57931C95.0897 0.910345 95.0897 1.24138 95.0897 1.57241H88.6345C88.6345 1.24138 88.6345 0.827586 88.3862 0.57931C88.1379 0.248276 87.7241 0 86.8966 0C86.1517 0 85.8207 0.248276 85.6552 0.57931C85.4897 0.910345 85.4897 1.24138 85.4897 1.57241H81.5172C80.8552 1.57241 79.9448 1.73793 79.9448 2.89655C79.8621 4.13793 81.1035 4.13793 81.4345 4.13793ZM98.1517 12.9103C98.731 13.2414 99.9724 13.9034 100.303 14.1517C101.545 14.8966 101.71 15.0621 102.207 15.0621C103.2 15.0621 103.531 14.1517 103.531 13.8207C103.531 13.7379 103.531 13.6552 103.531 13.6552C103.531 12.9103 102.869 12.4966 102.372 12.1655C101.462 11.669 99.4759 10.5103 98.6483 10.5103C97.7379 10.5103 97.2414 11.4207 97.2414 12C97.3241 12.4138 97.8207 12.6621 98.1517 12.9103ZM103.2 18.0414C103.531 17.8759 103.697 17.5448 103.697 16.9655C103.697 16.469 103.531 16.1379 103.283 15.8897C103.034 15.7241 102.703 15.6414 102.29 15.6414H93.269V14.6483H94.5103C95.669 14.6483 96.331 14.4 96.7448 13.9862C97.1586 13.4897 97.1586 12.8276 97.1586 11.8345V8.85517C97.1586 7.86207 97.0759 7.2 96.7448 6.70345C96.331 6.2069 95.669 5.95862 94.5103 5.95862H93.0207C93.1035 5.71034 93.1862 5.54483 93.1862 5.37931C93.1862 4.88276 92.5241 4.46897 91.531 4.46897C90.5379 4.46897 90.3724 4.8 89.7931 5.95862H89.0483C87.8897 5.95862 87.2276 6.2069 86.8138 6.62069C86.4 7.11724 86.4 7.86207 86.4 8.85517V11.8345C86.4 12.8276 86.4828 13.5724 86.8138 13.9862C87.2276 14.4828 87.8897 14.6483 89.0483 14.6483H90.1241V15.6414H81.269C80.9379 15.6414 79.8621 15.6414 79.8621 16.8828C79.8621 17.3793 79.9448 17.7103 80.1931 17.9586C80.4414 18.2069 80.7724 18.2897 81.269 18.2897H87.5586C86.731 18.7034 84.9931 19.6138 83.2552 20.0276C80.6897 20.6897 80.1104 20.8552 80.1104 21.931C80.1104 22.4276 80.4414 23.5034 81.5172 23.5862C82.6759 23.5862 87.1448 21.931 90.2069 19.6966V22.3448C90.2069 22.8414 90.2069 23.9172 91.6966 23.9172C92.1931 23.9172 92.6069 23.8345 92.9379 23.5862C93.1862 23.3379 93.3517 22.9241 93.3517 22.3448V19.2828C96.4138 21.8483 101.048 23.3379 102.041 23.3379C103.283 23.3379 103.531 22.2621 103.531 21.7655C103.531 20.7724 102.703 20.5241 102.041 20.3586C99.8897 19.7793 97.9862 19.2828 95.9172 18.1241H102.372C102.621 18.2069 102.952 18.2069 103.2 18.0414ZM89.4621 8.44138C89.4621 8.11034 89.6276 7.94483 89.9586 7.86207H93.6C94.0138 7.86207 94.0966 8.02759 94.1793 8.44138V9.02069H89.4621V8.44138ZM89.9586 12.4138C89.6276 12.4138 89.4621 12.2483 89.4621 11.8345V11.1724H94.1793V11.8345C94.1793 12.1655 94.0138 12.331 93.6 12.4138H89.9586ZM84.4966 9.68276C85.1586 9.68276 85.9035 9.10345 85.9035 8.02759C85.9035 7.44828 85.4897 7.2 84.5793 6.53793C83.8345 6.04138 82.5931 5.21379 81.931 5.21379C81.1862 5.21379 80.6069 5.95862 80.6069 6.70345C80.6069 7.11724 80.8552 7.44828 81.0207 7.61379C81.269 7.77931 82.3448 8.44138 82.5103 8.6069C83.669 9.43448 84 9.68276 84.4966 9.68276ZM80.0276 13.1586C80.0276 13.5724 80.2759 14.731 81.3517 14.731C82.1793 14.731 84.1655 13.6552 84.9104 13.1586C85.5724 12.8276 86.2345 12.4138 86.2345 11.669C86.2345 11.5862 86.2345 11.5862 86.2345 11.5034C86.1517 11.0069 85.8207 10.2621 84.9931 10.2621C84.7448 10.2621 84.4966 10.3448 84.1655 10.5103C83.7517 10.6759 82.0138 11.5034 81.5172 11.669C80.5241 12.1655 79.9448 12.4138 80.0276 13.1586Z" fill="#222222"/>
    <path d="M4.13793 17.5448C3.47586 18.7862 3.06207 19.531 1.98621 19.531C1.15862 19.531 0 18.9517 0 17.8759C0 17.2966 0.0827586 17.131 0.993104 15.5586C1.4069 14.8138 3.06207 11.3379 4.38621 7.86207C1.57241 7.86207 0.165517 7.86207 0.165517 6.04138C0.165517 4.30345 1.57241 4.30345 2.15172 4.30345C2.81379 4.30345 5.04828 4.30345 5.54483 4.30345C5.71034 3.8069 6.28966 1.32414 6.53793 0.993103C6.86897 0.413792 7.36552 0.0827579 8.02759 0.0827579C8.85517 0.0827579 10.0138 0.496551 10.0138 1.57241C10.0138 1.98621 9.93103 2.23448 9.43448 4.05517C9.84828 3.97241 11.4207 3.8069 11.7517 3.8069C12.6621 3.8069 13.1586 4.55172 13.1586 5.37931C13.1586 7.11724 12.331 7.2 8.27586 7.61379C7.03448 10.9241 5.7931 14.3172 4.13793 17.5448ZM14.1517 10.4276C14.1517 8.85517 15.3103 8.77241 15.7241 8.77241C17.3793 8.77241 17.4621 10.0138 17.5448 10.5103C17.7103 12.5793 17.7103 14.4 17.7931 15.6414C19.3655 16.2207 21.269 17.2138 22.0966 17.7931C22.7586 18.2897 23.0897 18.6207 23.0897 19.2828C23.0897 20.1103 22.5103 21.269 21.4345 21.269C21.1034 21.269 20.9379 21.1862 19.7793 20.4414C19.1172 20.0276 18.1241 19.531 17.9586 19.4483C17.9586 22.7586 15.8069 24 12.4966 24C9.02069 24 6.37241 22.2621 6.37241 19.2828C6.37241 16.8 8.27586 14.4828 12.2483 14.4828C13.1586 14.4828 14.1517 14.6483 14.4828 14.731C14.2345 14.069 14.1517 11.0897 14.1517 10.4276ZM11.8345 17.5448C10.0966 17.5448 9.26897 18.2069 9.26897 19.1172C9.26897 20.5241 11.0069 20.8552 11.9172 20.8552C12.2483 20.8552 13.9862 20.8552 14.3172 19.6965C14.4 19.4483 14.4 19.2828 14.4 17.9586C13.9034 17.7931 12.8276 17.5448 11.8345 17.5448Z" fill="#222222"/>
    <path d="M25.4069 5.95862C25.4069 7.69655 22.8414 7.28276 21.3517 6.95172C21.7655 8.44138 22.1793 11.0069 20.3586 11.0069C18.6207 11.0069 19.0345 8.44138 19.3655 6.95172C17.8759 7.36552 15.3103 7.77931 15.3103 5.95862C15.3103 4.13793 17.8759 4.55172 19.3655 4.96552C18.9517 3.47586 18.5379 0.910343 20.3586 0.910343C22.1793 0.910343 21.7655 3.47586 21.3517 4.96552C22.8414 4.63448 25.4069 4.22069 25.4069 5.95862ZM20.7724 6.37241C21.3517 6.28965 21.8483 6.20689 22.1793 5.95862C21.8483 5.71034 21.3517 5.62758 20.7724 5.54483C20.6897 4.96552 20.5241 4.46896 20.3586 4.13793C20.1931 4.46896 20.0276 4.96552 19.9448 5.54483C19.3655 5.62758 18.869 5.71034 18.5379 5.95862C18.869 6.12414 19.3655 6.28965 19.9448 6.37241C20.0276 6.95172 20.1103 7.44827 20.3586 7.77931C20.5241 7.44827 20.6897 6.95172 20.7724 6.37241Z" fill="#222222"/>
  </g>
  <defs>
    <clipPath id="clip0_1008_411">
      <rect width="129.103" height="24" fill="white"/>
    </clipPath>
  </defs>
</svg>