<svg xmlns="http://www.w3.org/2000/svg" width="73" height="100" viewBox="0 0 73 100" fill="none">
  <rect width="73" height="100" fill="#D9D9D9"/>
  <path fill-rule="evenodd" clip-rule="evenodd" d="M37 47.4002C39.3196 47.4002 41.2 45.5198 41.2 43.2002C41.2 40.8806 39.3196 39.0002 37 39.0002C34.6804 39.0002 32.8 40.8806 32.8 43.2002C32.8 45.5198 34.6804 47.4002 37 47.4002ZM37 49.2002C40.3137 49.2002 43 46.5139 43 43.2002C43 39.8865 40.3137 37.2002 37 37.2002C33.6863 37.2002 31 39.8865 31 43.2002C31 46.5139 33.6863 49.2002 37 49.2002Z" fill="#A2A2A2"/>
  <path fill-rule="evenodd" clip-rule="evenodd" d="M37 51.9002C32.9474 51.9002 29.5399 54.672 28.5741 58.4245C28.4502 58.9059 27.9595 59.1957 27.4781 59.0718C26.9968 58.9479 26.707 58.4572 26.8309 57.9759C27.9964 53.4473 32.1062 50.1002 37 50.1002C41.8938 50.1002 46.0036 53.4473 47.1692 57.9759C47.2931 58.4572 47.0033 58.9479 46.5219 59.0718C46.0405 59.1957 45.5499 58.9059 45.426 58.4245C44.4601 54.672 41.0526 51.9002 37 51.9002Z" fill="#A2A2A2"/>
</svg>